<svg id="Layer_1" height="512" viewBox="0 0 256 256" width="512" xmlns="http://www.w3.org/2000/svg"><g><g><g><g><g><path d="m118 241.471h-92.517c-5.523 0-10-4.477-10-10v-138.512c0-5.523 4.477-10 10-10h92.517c5.523 0 10 4.477 10 10v138.512c0 5.522-4.477 10-10 10z" fill="#8c77aa"/></g><g><path d="m230.518 241.471h-92.518c-5.523 0-10-4.477-10-10v-138.512c0-5.523 4.477-10 10-10h92.518c5.523 0 10 4.477 10 10v138.512c0 5.522-4.478 10-10 10z" fill="#8c77aa"/></g></g><g><g><path d="m118 232.177h-92.517c-5.523 0-10-4.477-10-10v-138.512c0-5.523 4.477-10 10-10h92.517c5.523 0 10 4.477 10 10v138.512c0 5.523-4.477 10-10 10z" fill="#a48bc1"/></g><g><path d="m230.518 232.177h-92.518c-5.523 0-10-4.477-10-10v-138.512c0-5.523 4.477-10 10-10h92.518c5.523 0 10 4.477 10 10v138.512c0 5.523-4.478 10-10 10z" fill="#ba9dd6"/></g></g><g><path d="m118 220.759h-83.905c-5.523 0-10-4.477-10-10v-135.894c0-5.523 4.477-10 10-10h83.905c5.523 0 10 4.477 10 10v135.894c0 5.522-4.477 10-10 10z" fill="#e8c197"/></g><g><path d="m221.905 220.759h-83.905c-5.523 0-10-4.477-10-10v-135.894c0-5.523 4.477-10 10-10h83.905c5.523 0 10 4.477 10 10v135.894c0 5.522-4.478 10-10 10z" fill="#e6e7e8"/></g><g><path d="m221.905 220.759h-83.905c-5.523 0-10-4.477-10-10v-135.894c0-5.523 4.477-10 10-10h83.905c5.523 0 10 4.477 10 10v135.894c0 5.522-4.478 10-10 10z" fill="#fedbb0"/></g><g><path d="m221.905 64.865h-20c5.523 0 10 4.477 10 10v135.894c0 5.523-4.477 10-10 10h20c5.523 0 10-4.477 10-10v-135.894c0-5.523-4.478-10-10-10z" fill="#e8c197"/></g><g><g><g><path d="m213.092 144.769h-54.716c-1.104 0-2-.896-2-2s.896-2 2-2h54.716c1.104 0 2 .896 2 2s-.896 2-2 2z" fill="#a86654"/></g><g><path d="m213.092 171.429h-64.716c-1.104 0-2-.896-2-2s.896-2 2-2h64.716c1.104 0 2 .896 2 2s-.896 2-2 2z" fill="#a86654"/></g><g><path d="m213.092 198.089h-64.716c-1.104 0-2-.896-2-2s.896-2 2-2h64.716c1.104 0 2 .896 2 2s-.896 2-2 2z" fill="#a86654"/></g></g><g><g><path d="m97.624 144.769h-54.716c-1.104 0-2-.896-2-2s.896-2 2-2h54.716c1.104 0 2 .896 2 2s-.896 2-2 2z" fill="#a86654"/></g><g><path d="m107.624 171.429h-64.716c-1.104 0-2-.896-2-2s.896-2 2-2h64.716c1.104 0 2 .896 2 2s-.896 2-2 2z" fill="#a86654"/></g><g><path d="m107.624 198.089h-64.716c-1.104 0-2-.896-2-2s.896-2 2-2h64.716c1.104 0 2 .896 2 2s-.896 2-2 2z" fill="#a86654"/></g></g></g></g><g><g><g><g><path d="m115.142 120.061 43.326-86.585c1.207-2.412 4.649-2.412 5.856 0l43.326 86.585c1.089 2.177-.494 4.739-2.928 4.739h-86.652c-2.434 0-4.017-2.562-2.928-4.739z" fill="#6ea6af"/></g><g><path d="m155.028 55.792 3.828 5.534c.972 1.406 3.05 1.406 4.023 0l3.896-5.633c1.031-1.49 3.059-1.894 4.581-.911l5.359 3.458-12.391-24.763c-1.207-2.412-4.649-2.412-5.856 0l-12.154 24.288 4.03-2.815c1.526-1.065 3.626-.687 4.684.842z" fill="#fedbb0"/></g></g><g><g><path d="m48.35 120.061 43.326-86.585c1.207-2.412 4.649-2.412 5.856 0l43.326 86.585c1.089 2.177-.494 4.739-2.928 4.739h-86.652c-2.434 0-4.017-2.562-2.928-4.739z" fill="#6ea6af"/></g><g><path d="m88.236 55.792 3.828 5.534c.972 1.406 3.05 1.406 4.023 0l3.896-5.633c1.031-1.49 3.059-1.894 4.581-.911l5.359 3.458-12.391-24.764c-1.207-2.412-4.649-2.412-5.856 0l-12.153 24.288 4.03-2.815c1.525-1.064 3.625-.686 4.683.843z" fill="#fedbb0"/></g></g></g><g><g><path d="m73.171 120.061 51.901-103.722c1.207-2.412 4.649-2.412 5.856 0l51.901 103.722c1.089 2.177-.494 4.739-2.928 4.739h-103.802c-2.434 0-4.017-2.562-2.928-4.739z" fill="#8dc8d8"/></g><g><path d="m120.509 43.622 4.503 6.51c1.144 1.654 3.588 1.654 4.732 0l4.584-6.627c1.213-1.753 3.598-2.228 5.389-1.072l6.304 4.067-15.093-30.162c-1.207-2.412-4.649-2.412-5.856 0l-14.813 29.603 4.741-3.31c1.794-1.253 4.265-.808 5.509.991z" fill="#fedbb0"/></g></g></g></g><g><path d="m230.518 243.47h-92.518c-4.169 0-7.849-2.137-10-5.373-2.152 3.236-5.831 5.373-10 5.373h-92.518c-6.617 0-12-5.383-12-12v-147.805c0-5.482 3.753-10.229 8.943-11.595 1.267-5.34 6.046-9.205 11.669-9.205h40.639l15.153-30.283c.899-1.798 2.707-2.914 4.717-2.914s3.817 1.116 4.717 2.914l7.693 15.375 16.27-32.513c.899-1.798 2.706-2.914 4.716-2.914 2.01-.001 3.817 1.116 4.716 2.914l16.27 32.513 7.694-15.375c.899-1.798 2.706-2.914 4.717-2.914 2.01 0 3.816 1.116 4.717 2.914l15.152 30.283h40.639c5.623 0 10.403 3.865 11.67 9.204 5.19 1.367 8.943 6.113 8.943 11.596v147.805c.001 6.617-5.382 12-11.999 12zm-102.518-14c1.104 0 2 .896 2 2 0 4.411 3.589 8 8 8h92.518c4.411 0 8-3.589 8-8v-147.805c0-3.99-2.983-7.395-6.939-7.92-.913-.121-1.625-.849-1.726-1.764-.445-4.057-3.862-7.116-7.948-7.116h-41.875c-.758 0-1.449-.428-1.788-1.105l-15.707-31.389c-.317-.635-.902-.703-1.139-.703s-.822.068-1.141.704l-9.481 18.949c-.34.678-1.032 1.105-1.789 1.105s-1.449-.428-1.789-1.105l-18.056-36.088c-.318-.635-.903-.704-1.14-.703-.236 0-.821.068-1.139.703l-18.058 36.088c-.339.678-1.031 1.105-1.789 1.105s-1.45-.428-1.789-1.105l-9.482-18.95c-.318-.635-.903-.703-1.14-.703s-.822.068-1.14.704l-15.705 31.387c-.339.678-1.031 1.105-1.789 1.105h-41.874c-4.086 0-7.502 3.06-7.948 7.115-.101.915-.813 1.644-1.725 1.765-3.957.525-6.94 3.93-6.94 7.92v147.806c0 4.411 3.589 8 8 8h92.518c4.411 0 8-3.589 8-8 0-1.104.896-2 2-2z" fill="#422618"/></g></g></svg>