<svg id="Layer_1" height="512" viewBox="0 0 256 256" width="512" xmlns="http://www.w3.org/2000/svg"><g><g><g><g><path d="m25.651 44.685h12.25v108.264h-12.25z" fill="#725246"/></g><g><path d="m218.099 44.685h12.25v108.264h-12.25z" fill="#725246"/></g><g><g><g><path d="m33.159 68.395c13.095 0 23.71-10.615 23.71-23.71h-47.42c0 13.094 10.615 23.71 23.71 23.71z" fill="#e06e9a"/></g></g><g><g><path d="m80.58 68.395c13.095 0 23.71-10.615 23.71-23.71h-47.42c-.001 13.094 10.615 23.71 23.71 23.71z" fill="#cc628e"/></g></g><g><g><path d="m104.29 44.685c0 13.095 10.616 23.71 23.71 23.71s23.71-10.615 23.71-23.71z" fill="#e06e9a"/></g></g><g><g><path d="m151.71 44.685c0 13.095 10.615 23.71 23.71 23.71s23.71-10.615 23.71-23.71z" fill="#cc628e"/></g></g><g><g><path d="m199.131 44.685c0 13.095 10.615 23.71 23.71 23.71s23.71-10.615 23.71-23.71z" fill="#e06e9a"/></g></g><g><g><path d="m56.869 44.685h-47.42l23.71-38.904h37.936z" fill="#cc628e"/></g><g><path d="m246.551 44.685h-47.42l-14.227-38.904h37.937z" fill="#cc628e"/></g><g><path d="m104.29 44.685h-47.421l14.226-38.904h37.937z" fill="#e06e9a"/></g><g><path d="m151.71 44.685h-47.42l4.742-38.904h37.936z" fill="#cc628e"/></g><g><path d="m199.131 44.685h-47.421l-4.742-38.904h37.936z" fill="#e06e9a"/></g></g></g><g><path d="m224.422 250.219h-192.844c-3.274 0-5.928-2.654-5.928-5.928v-69.985h204.698v69.985c.001 3.274-2.653 5.928-5.926 5.928z" fill="#b2b0ad"/></g><g><path d="m210.349 174.307v69.985c0 3.274-2.654 5.928-5.928 5.928h20c3.274 0 5.928-2.654 5.928-5.928v-69.985z" fill="#a3a09d"/></g><g><path d="m205.349 235.219h-154.698c-2.761 0-5-2.239-5-5v-35.912c0-2.761 2.239-5 5-5h154.698c2.761 0 5 2.239 5 5v35.912c0 2.761-2.239 5-5 5z" fill="#827f7e"/></g><g><path d="m239.833 152.949h-223.666c-1.309 0-2.371 1.062-2.371 2.371v16.616c0 1.309 1.062 2.371 2.371 2.371h223.666c1.309 0 2.371-1.062 2.371-2.371v-16.616c0-1.31-1.061-2.371-2.371-2.371z" fill="#827f7e"/></g></g><g><g><g><path d="m95.12 152.949v-68.554c0-.647.524-1.171 1.171-1.171h22.714c.647 0 1.171.524 1.171 1.171v68.554z" fill="#6ea6af"/></g><g><path d="m101.541 132.551v-28.93c0-1.043.846-1.889 1.889-1.889h8.436c1.043 0 1.889.846 1.889 1.889v28.93c0 1.043-.846 1.889-1.889 1.889h-8.436c-1.043-.001-1.889-.846-1.889-1.889z" fill="#8dc8d8"/></g><g><g><path d="m104.941 79.761h5.414v25.056h-5.414z" fill="#8dc8d8" transform="matrix(0 1 -1 0 199.937 -15.359)"/></g><g><path d="m104.941 131.355h5.414v25.056h-5.414z" fill="#8dc8d8" transform="matrix(0 1 -1 0 251.531 36.235)"/></g></g></g><g><g><path d="m132.967 152.949v-71.483c0-.647.524-1.171 1.171-1.171h22.714c.647 0 1.171.524 1.171 1.171v71.482h-25.056z" fill="#a86654"/></g><g><path d="m139.389 132.551v-31.858c0-1.043.846-1.889 1.889-1.889h8.436c1.043 0 1.889.846 1.889 1.889v31.858c0 1.043-.846 1.889-1.889 1.889h-8.436c-1.044-.001-1.889-.846-1.889-1.889z" fill="#c77b61"/></g><g><g><path d="m142.788 75.661h5.414v25.056h-5.414z" fill="#e59a5c" transform="matrix(0 1 -1 0 233.685 -57.306)"/></g><g><path d="m142.788 132.526h5.414v25.056h-5.414z" fill="#e59a5c" transform="matrix(0 1 -1 0 290.55 -.441)"/></g></g></g><g><g><path d="m132.967 152.949v-64.777c0-.647-.524-1.171-1.171-1.171h-10.449c-.647 0-1.171.524-1.171 1.171v64.777z" fill="#f47da5"/></g><g><g><g><path d="m124.494 89.671h4.155v12.791h-4.155z" fill="#725246" transform="matrix(0 1 -1 0 222.638 -30.505)"/></g><g><path d="m124.494 97.225h4.155v12.791h-4.155z" fill="#725246" transform="matrix(0 1 -1 0 230.193 -22.951)"/></g></g><g><g><path d="m124.494 129.932h4.155v12.791h-4.155z" fill="#725246" transform="matrix(0 1 -1 0 262.9 9.756)"/></g><g><path d="m124.494 137.487h4.155v12.791h-4.155z" fill="#725246" transform="matrix(0 1 -1 0 270.455 17.311)"/></g></g></g></g><g><g><path d="m76.472 152.949v-64.777c0-.647-.524-1.171-1.171-1.171h-10.449c-.647 0-1.171.524-1.171 1.171v64.777z" fill="#ba9dd6"/></g><g><g><g><path d="m67.998 89.671h4.155v12.791h-4.155z" fill="#8c77aa" transform="matrix(0 1 -1 0 166.142 25.99)"/></g><g><path d="m67.998 97.225h4.155v12.791h-4.155z" fill="#8c77aa" transform="matrix(0 1 -1 0 173.697 33.545)"/></g></g><g><g><path d="m67.998 129.932h4.155v12.791h-4.155z" fill="#8c77aa" transform="matrix(0 1 -1 0 206.404 66.252)"/></g><g><path d="m67.998 137.487h4.155v12.791h-4.155z" fill="#8c77aa" transform="matrix(0 1 -1 0 213.959 73.807)"/></g></g></g></g><g><g><path d="m95.12 152.949v-53.064c0-.647-.524-1.171-1.171-1.171h-16.306c-.647 0-1.171.524-1.171 1.171v53.063h18.648z" fill="#bbe2a1"/></g><g><g><g><path d="m83.718 96.113h4.155v18.648h-4.155z" fill="#99bc82" transform="matrix(0 1 -1 0 191.233 19.641)"/></g></g><g><g><path d="m83.718 136.902h4.155v18.648h-4.155z" fill="#99bc82" transform="matrix(0 1 -1 0 232.021 60.43)"/></g></g></g></g><g><g><path d="m173.672 152.949v-63.064c0-.647-.524-1.171-1.171-1.171h-13.305c-.647 0-1.171.524-1.171 1.171v63.063h15.647z" fill="#ba9dd6"/></g><g><g><g><path d="m163.77 87.613h4.155v15.648h-4.155z" fill="#8c77aa" transform="matrix(0 1 -1 0 261.285 -70.411)"/></g></g><g><g><path d="m163.77 138.402h4.155v15.648h-4.155z" fill="#8c77aa" transform="matrix(0 1 -1 0 312.073 -19.622)"/></g></g></g></g><g><g><path d="m192.32 152.949v-53.064c0-.647-.524-1.171-1.171-1.171h-16.305c-.647 0-1.171.524-1.171 1.171v53.063h18.647z" fill="#8dc8d8"/></g><g><g><g><path d="m180.918 96.113h4.155v18.648h-4.155z" fill="#6ea6af" transform="matrix(0 1 -1 0 288.433 -77.559)"/></g></g><g><g><path d="m180.918 136.902h4.155v18.648h-4.155z" fill="#6ea6af" transform="matrix(0 1 -1 0 329.221 -36.77)"/></g></g></g></g></g></g><g><path d="m224.421 252.219h-192.842c-4.372 0-7.928-3.556-7.928-7.927v-67.985h-7.484c-2.41 0-4.371-1.961-4.371-4.371v-16.616c0-2.41 1.961-4.371 4.371-4.371h7.484v-82.377c-9.749-3.873-16.202-13.296-16.202-23.887 0-.367.101-.727.292-1.041l22.249-36.506c1.262-2.071 3.553-3.357 5.978-3.357h184.065c2.425 0 4.715 1.286 5.978 3.357l22.249 36.505c.191.314.292.674.292 1.041 0 10.592-6.453 20.015-16.202 23.888v82.376h7.484c2.41 0 4.371 1.96 4.371 4.371v16.616c0 2.41-1.961 4.371-4.371 4.371h-7.484v67.985c-.001 4.372-3.557 7.928-7.929 7.928zm-212.965-206.984c.229 9.128 6.129 17.139 14.828 20.042.816.272 1.367 1.036 1.367 1.897v85.774c0 1.104-.896 2-2 2h-9.484c-.205 0-.371.167-.371.371v16.616c0 .205.167.371.371.371h9.484c1.104 0 2 .896 2 2v69.985c0 2.166 1.762 3.927 3.928 3.927h192.843c2.166 0 3.928-1.762 3.928-3.927v-69.985c0-1.104.896-2 2-2h9.484c.205 0 .371-.167.371-.371v-16.616c0-.204-.167-.371-.371-.371h-9.484c-1.104 0-2-.896-2-2v-85.774c0-.861.55-1.625 1.367-1.897 8.699-2.903 14.6-10.914 14.828-20.042l-21.951-36.015c-.541-.888-1.522-1.439-2.562-1.439h-184.065c-1.039 0-2.021.551-2.562 1.439zm180.864 109.714c-.53 0-1.039-.211-1.414-.586s-.586-.884-.586-1.414v-52.235h-14.827c-.315.691-1.012 1.171-1.821 1.171-1.104 0-2-.896-2-2v-9.171h-11.827c-.315.691-1.012 1.171-1.821 1.171-1.104 0-2-.896-2-2v-7.59h-21.057v5.877c0 1.104-.896 2-2 2-.809 0-1.506-.48-1.821-1.171h-9.15c-.315.691-1.012 1.171-1.821 1.171-1.104 0-2-.896-2-2v-2.949h-21.055v14.662c0 1.104-.896 2-2 2-.809 0-1.506-.48-1.821-1.171h-15.007c-.315.691-1.012 1.171-1.821 1.171-1.104 0-2-.896-2-2v-10.885h-8.791v63.948c0 1.104-.896 2-2 2h-25.779c-1.104 0-2-.896-2-2v-85.029c0-.951.67-1.771 1.602-1.96 10.063-2.042 17.366-10.99 17.366-21.275 0-1.104.896-2 2-2s2 .896 2 2c0 11.971 9.739 21.71 21.71 21.71s21.71-9.739 21.71-21.71c0-1.104.896-2 2-2s2 .896 2 2c0 11.971 9.739 21.71 21.71 21.71s21.71-9.739 21.71-21.71c0-1.104.896-2 2-2s2 .896 2 2c0 11.971 9.739 21.71 21.71 21.71s21.71-9.739 21.71-21.71c0-1.104.896-2 2-2s2 .896 2 2c0 10.285 7.303 19.232 17.366 21.275.932.189 1.602 1.009 1.602 1.96v85.029c0 1.104-.896 2-2 2zm2-4h21.779v-81.449c-7.755-2.103-13.944-7.721-16.962-14.887-3.892 9.262-13.057 15.782-23.716 15.782-10.654 0-19.815-6.514-23.71-15.768-3.895 9.254-13.056 15.768-23.71 15.768s-19.815-6.514-23.71-15.769c-3.895 9.255-13.056 15.769-23.71 15.769-10.659 0-19.825-6.521-23.716-15.782-3.018 7.167-9.207 12.785-16.962 14.887v81.448h21.779v-62.776c0-1.749 1.423-3.171 3.171-3.171h10.447c1.749 0 3.171 1.423 3.171 3.171v8.542h14.649v-12.319c0-1.749 1.423-3.171 3.171-3.171h22.714c1.749 0 3.171 1.423 3.171 3.171v.605h8.792v-3.534c0-1.749 1.423-3.171 3.171-3.171h22.714c1.749 0 3.171 1.423 3.171 3.171v5.248h12.476c1.749 0 3.171 1.423 3.171 3.171v6.829h15.477c1.749 0 3.171 1.423 3.171 3.171v51.064zm-3.172-50.235h.01zm-98.028-.829h.01zm37.847-11.713h.01z" fill="#422618"/></g></g></svg>