<svg id="Layer_1" height="512" viewBox="0 0 256 256" width="512" xmlns="http://www.w3.org/2000/svg"><g><g><g><g><path d="m122.663 110.847c-2.862 1.255-4.998 3.768-5.71 6.811-2.151 9.203-3.325 19.033-3.325 29.256 0 72.711 57.189 93.314 65.936 93.314s65.936-20.603 65.936-93.314c0-10.223-1.174-20.053-3.325-29.256-.711-3.043-2.848-5.556-5.71-6.811l-52.885-23.191c-2.56-1.122-5.472-1.122-8.032 0z" fill="#f47da5"/></g><g><path d="m242.175 117.658c-.711-3.043-2.848-5.556-5.71-6.811l-52.885-23.191c-2.56-1.122-5.472-1.122-8.032 0l-5.984 2.624 46.901 20.567c2.862 1.255 4.998 3.768 5.71 6.811 2.151 9.203 3.325 19.033 3.325 29.256 0 58.394-36.88 83.176-55.936 90.673 4.672 1.838 8.278 2.642 10 2.642 8.747 0 65.936-20.603 65.936-93.314 0-10.224-1.174-20.054-3.325-29.257z" fill="#e06e9a"/></g><g><g><path d="m147.186 148.622c6.349 0 12.111 1.672 16.353 4.391.797.511 1.838-.204 1.628-1.127-1.645-7.241-9.067-12.706-17.981-12.706s-16.336 5.465-17.981 12.706c-.21.923.831 1.638 1.628 1.127 4.242-2.719 10.004-4.391 16.353-4.391z" fill="#5e3e2f"/></g><g><path d="m211.942 148.622c6.349 0 12.111 1.672 16.353 4.391.797.511 1.838-.204 1.628-1.127-1.645-7.241-9.067-12.706-17.981-12.706s-16.336 5.465-17.981 12.706c-.21.923.831 1.638 1.628 1.127 4.242-2.719 10.003-4.391 16.353-4.391z" fill="#5e3e2f"/></g></g><g><path d="m179.564 198.816c-10.578 0-20.203-2.535-27.412-6.683-1.725-.992-3.743.672-3.12 2.562 3.751 11.377 15.996 21.389 30.532 21.389s26.782-10.012 30.532-21.389c.623-1.89-1.395-3.555-3.12-2.562-7.209 4.147-16.834 6.683-27.412 6.683z" fill="#5e3e2f"/></g></g><g><g><path d="m19.535 39.804c-2.862 1.255-4.998 3.768-5.71 6.811-2.151 9.203-3.325 19.033-3.325 29.256 0 72.711 57.189 93.314 65.936 93.314s65.936-20.603 65.936-93.314c0-10.223-1.174-20.053-3.325-29.256-.711-3.043-2.848-5.556-5.71-6.811l-52.885-23.191c-2.56-1.122-5.472-1.122-8.032 0z" fill="#8dc8d8"/></g><g><g><path d="m47.776 97.497c0 2.947-2.389 5.336-5.336 5.336s-5.336-2.389-5.336-5.336 5.336-9.277 5.336-9.277 5.336 6.33 5.336 9.277z" fill="#6ea6af"/></g><g><path d="m115.769 97.497c0 2.947-2.389 5.336-5.336 5.336s-5.336-2.389-5.336-5.336 5.336-9.277 5.336-9.277 5.336 6.33 5.336 9.277z" fill="#6ea6af"/></g></g><g><g><path d="m44.058 73.778c6.349 0 12.111-1.672 16.353-4.391.797-.511 1.838.204 1.628 1.127-1.645 7.241-9.067 12.706-17.981 12.706s-16.336-5.465-17.981-12.706c-.21-.923.831-1.638 1.628-1.127 4.242 2.719 10.004 4.391 16.353 4.391z" fill="#5e3e2f"/></g><g><path d="m108.814 73.778c6.349 0 12.111-1.672 16.353-4.391.797-.511 1.838.204 1.628 1.127-1.645 7.241-9.067 12.706-17.981 12.706s-16.336-5.465-17.981-12.706c-.21-.923.831-1.638 1.628-1.127 4.241 2.719 10.003 4.391 16.353 4.391z" fill="#5e3e2f"/></g></g><g><path d="m76.436 129.427c-10.578 0-20.203 2.535-27.412 6.683-1.725.992-3.743-.672-3.12-2.562 3.751-11.377 15.996-21.389 30.532-21.389s26.782 10.012 30.532 21.389c.623 1.89-1.395 3.555-3.12 2.562-7.209-4.147-16.834-6.683-27.412-6.683z" fill="#5e3e2f"/></g></g></g><g><path d="m179.564 242.229c-5.507 0-22.064-5.729-37.171-19.532-13.19-12.052-28.922-33.754-30.606-69.427-14.448 12.469-30.1 17.915-35.35 17.915-4.292 0-21.177-4.722-37.606-19.922-13.837-12.802-30.331-36.273-30.331-75.392 0-10.125 1.136-20.122 3.377-29.711.845-3.615 3.407-6.676 6.854-8.188l52.885-23.191c3.062-1.343 6.575-1.343 9.638 0l52.886 23.191c3.447 1.511 6.009 4.572 6.854 8.188 2.241 9.591 3.377 19.588 3.377 29.711 0 8.464-.776 16.614-2.311 24.286l32.683-14.333c3.064-1.343 6.578-1.343 9.639 0l52.885 23.191c3.447 1.511 6.009 4.572 6.854 8.187 2.241 9.589 3.377 19.585 3.377 29.711 0 39.119-16.494 62.59-30.33 75.392-16.427 15.202-33.313 19.924-37.604 19.924zm-65.911-95.35c.261 0 .524.051.773.156.733.308 1.214 1.021 1.226 1.815.53 36.848 16.301 58.891 29.438 70.894 14.41 13.166 30.282 18.485 34.473 18.485 4.269 0 20.372-5.426 34.89-18.859 13.251-12.26 29.046-34.782 29.046-72.456 0-9.82-1.101-19.51-3.272-28.801-.559-2.395-2.266-4.426-4.565-5.434l-52.885-23.191c-2.041-.896-4.384-.896-6.426 0l-36.281 15.91c-.694.306-1.503.19-2.085-.297-.583-.486-.839-1.261-.663-1.999 2.024-8.478 3.05-17.64 3.05-27.231 0-9.817-1.101-19.507-3.273-28.801-.559-2.395-2.266-4.426-4.565-5.435l-52.885-23.191c-2.042-.895-4.383-.894-6.426 0l-52.885 23.192c-2.299 1.008-4.006 3.04-4.565 5.435-2.172 9.291-3.273 18.981-3.273 28.8 0 37.674 15.795 60.196 29.046 72.456 14.518 13.432 30.621 18.858 34.89 18.858 3.333 0 20.078-4.731 35.836-19.754.379-.361.876-.552 1.381-.552z" fill="#422618"/></g></g></svg>