<svg id="Layer_1" height="512" viewBox="0 0 256 256" width="512" xmlns="http://www.w3.org/2000/svg"><g><g><g><g><g><path d="m225.615 223.945h-185c-2.761 0-5 2.239-5 5v12.863c0 2.761 2.239 5 5 5h185c2.761 0 5-2.239 5-5v-12.863c0-2.762-2.238-5-5-5z" fill="#f47da5"/></g><g><g><g><path d="m54.115 223.945h11v22.863h-11z" fill="#725246"/></g><g><path d="m74.115 223.945h11v22.863h-11z" fill="#725246"/></g></g><g><g><path d="m181.115 223.945h11v22.863h-11z" fill="#725246"/></g><g><path d="m201.115 223.945h11v22.863h-11z" fill="#725246"/></g></g></g></g><g><g><path d="m228.615 124.611h-162c-13.991 0-25.333 11.342-25.333 25.333 0 13.991 11.342 25.333 25.333 25.333h162c1.105 0 2-.895 2-2v-46.667c0-1.103-.895-1.999-2-1.999z" fill="#99bc82"/></g><g><path d="m230.615 134.611h-164c-8.468 0-15.333 6.865-15.333 15.333 0 8.468 6.865 15.333 15.333 15.333h164z" fill="#fedbb0"/></g><g><g><path d="m230.615 142.945v-4h-174.668c-1.194 1.158-2.195 2.508-2.963 4z" fill="#d1ab86"/></g><g><path d="m230.615 147.945h-179.188c-.086.656-.145 1.32-.145 2s.059 1.344.145 2h179.188z" fill="#d1ab86"/></g><g><path d="m230.615 156.945h-177.631c.768 1.492 1.769 2.842 2.963 4h174.669v-4z" fill="#d1ab86"/></g></g></g><g><g><g><path d="m37.282 175.278h173.333c11.046 0 20 8.954 20 20v8.667c0 11.046-8.954 20-20 20h-173.333c-1.105 0-2-.895-2-2v-44.667c0-1.105.896-2 2-2z" fill="#a86654"/></g><g><path d="m35.282 185.278h175.333c5.523 0 10 4.477 10 10v8.667c0 5.523-4.477 10-10 10h-175.333z" fill="#fedbb0"/></g></g><g><g><path d="m35.282 196.111h185.333v-.833c0-1.108-.188-2.17-.52-3.167h-184.813z" fill="#e8c197"/></g><g><path d="m35.282 203.111v4h184.813c.333-.996.52-2.059.52-3.167v-.833z" fill="#e8c197"/></g></g></g></g><g><g><path d="m130.513 93.812c5.523 0 10-4.477 10-10v-64.62c0-5.523-4.477-10-10-10h-95.128c-5.523 0-10 4.477-10 10v64.619c0 5.523 4.477 10 10 10h37.107l22.882 20.292c1.29 1.144 3.327.228 3.327-1.496v-18.795z" fill="#ba9dd6"/></g></g><g><g><path d="m130.513 9.192h-20c5.523 0 10 4.477 10 10v64.619c0 5.523-4.477 10-10 10h20c5.523 0 10-4.477 10-10v-64.619c0-5.523-4.477-10-10-10z" fill="#a48bc1"/></g></g><g><path d="m76.949 71.056h-22v-23.429h13.429c1.104 0 2-.896 2-2s-.896-2-2-2h-13.429v-13.143h22c1.104 0 2-.896 2-2s-.896-2-2-2h-24c-1.104 0-2 .896-2 2v44.572c0 1.104.896 2 2 2h24c1.104 0 2-.896 2-2s-.896-2-2-2z" fill="#422618"/><g><path d="m112.948 75.056c-.722 0-1.406-.393-1.76-1.052l-20.239-37.587v36.639c0 1.104-.896 2-2 2s-2-.896-2-2v-44.572c0-.916.623-1.715 1.511-1.939s1.815.185 2.25.991l20.239 37.587v-36.639c0-1.104.896-2 2-2s2 .896 2 2v44.572c0 .916-.623 1.715-1.511 1.939-.163.041-.328.061-.49.061z" fill="#422618"/></g></g></g><g><g><path d="m225.615 248.808h-185c-3.86 0-7-3.14-7-7v-12.863c0-1.432.432-2.765 1.173-3.875-.917-.733-1.506-1.862-1.506-3.125v-44.667c0-2.206 1.794-4 4-4h15.109c-7.856-4.807-13.109-13.468-13.109-23.333 0-15.072 12.262-27.333 27.333-27.333h162c2.206 0 4 1.794 4 4v46.667c0 2.206-1.794 4-4 4h-5.363c5.659 3.985 9.363 10.568 9.363 18v8.667c0 7.432-3.704 14.015-9.363 18h2.363c3.859 0 7 3.14 7 7v12.863c0 3.858-3.14 6.999-7 6.999zm-185-22.864c-1.654 0-3 1.346-3 3v12.863c0 1.654 1.346 3 3 3h185c1.654 0 3-1.346 3-3v-12.863c0-1.654-1.346-3-3-3h-15c-1.104 0-2-.896-2-2s.896-2 2-2c9.925 0 18-8.075 18-18v-8.667c0-9.925-8.075-18-18-18-1.104 0-2-.896-2-2s.896-2 2-2h18v-46.667h-162c-12.866 0-23.333 10.467-23.333 23.333s10.467 23.333 23.333 23.333c1.104 0 2 .896 2 2s-.896 2-2 2h-29.333v44.667h3.333c1.104 0 2 .896 2 2s-.895 2.001-2 2.001z" fill="#422618"/></g><g><path d="m96.686 116.615c-.953 0-1.886-.346-2.64-1.015l-22.314-19.788h-36.347c-6.617 0-12-5.383-12-12v-64.62c0-6.617 5.383-12 12-12h95.128c6.617 0 12 5.383 12 12v64.62c0 6.617-5.383 12-12 12h-29.813v16.796c0 1.596-.904 2.994-2.359 3.648-.537.241-1.099.359-1.655.359zm-61.301-105.423c-4.411 0-8 3.589-8 8v64.62c0 4.411 3.589 8 8 8h37.106c.489 0 .961.179 1.327.504l22.882 20.291v-18.795c0-1.104.896-2 2-2h31.813c4.411 0 8-3.589 8-8v-64.62c0-4.411-3.589-8-8-8z" fill="#422618"/></g></g></g></svg>