<svg id="Layer_1" height="512" viewBox="0 0 256 256" width="512" xmlns="http://www.w3.org/2000/svg"><g><g><g><g><g><path d="m51.538 8.874c-8.284 0-15 6.716-15 15v197.351c0-9.814 7.956-17.77 17.77-17.77h165.155v-189.581c0-2.761-2.239-5-5-5z" fill="#fcc171"/></g><g><g><path d="m214.462 8.874h-20c2.761 0 5 2.239 5 5v189.582h20v-189.582c0-2.762-2.238-5-5-5z" fill="#e59a5c"/></g></g><g><path d="m69.433 8.874h-17.895c-8.284 0-15 6.716-15 15v197.351c0-9.814 7.956-17.77 17.77-17.77h15.126v-194.581z" fill="#c68254"/></g><g><path d="m36.538 221.225c0 9.814 7.956 17.77 17.77 17.77h160.155c2.761 0 5-2.239 5-5v-30.539h-165.156c-9.814-.001-17.769 7.955-17.769 17.769z" fill="#fedbb0"/></g><g><path d="m199.462 203.455v30.539c0 2.761-2.239 5-5 5h20c2.761 0 5-2.239 5-5v-30.539z" fill="#e8c197"/></g><g><path d="m205.333 232.225h-146.666c-1.104 0-2-.896-2-2s.896-2 2-2h146.666c1.104 0 2 .896 2 2s-.895 2-2 2z" fill="#d1ab86"/></g><g><path d="m205.333 223.225h-146.666c-1.104 0-2-.896-2-2s.896-2 2-2h146.666c1.104 0 2 .896 2 2s-.895 2-2 2z" fill="#d1ab86"/></g><g><path d="m86.755 246.784-7.104-4.767-7.104 4.767c-1.329.892-3.114-.061-3.114-1.661v-32.898h20.436v32.898c0 1.6-1.786 2.552-3.114 1.661z" fill="#f47da5"/></g><g><path d="m205.333 214.225h-146.666c-1.104 0-2-.896-2-2s.896-2 2-2h146.666c1.104 0 2 .896 2 2s-.895 2-2 2z" fill="#d1ab86"/></g></g></g><g><path d="m219.462 128.79h-49.796c-5.523 0-10-4.477-10-10v-17c0-5.523 4.477-10 10-10h49.796z" fill="#725246"/></g><g><circle cx="178.5" cy="110.29" fill="#fedbb0" r="9"/></g></g><g><path d="m87.869 249.125c-.779 0-1.556-.229-2.229-.68l-5.989-4.02-5.989 4.02c-1.229.823-2.805.904-4.111.208-1.306-.697-2.117-2.05-2.117-3.53v-4.128h-13.127c-10.901 0-19.77-8.869-19.77-19.771v-197.35c0-9.374 7.626-17 17-17h162.926c3.859 0 7 3.141 7 7v220.121c0 3.859-3.141 7-7 7h-122.594v4.128c0 1.48-.812 2.833-2.117 3.53-.592.316-1.238.472-1.883.472zm-8.218-9.107c.389 0 .777.113 1.114.339l7.104 4.767v-6.128c0-1.104.896-2 2-2h124.594c1.654 0 3-1.346 3-3v-220.122c0-1.654-1.346-3-3-3h-162.926c-7.168 0-13 5.832-13 13v197.351c0 8.696 7.074 15.771 15.77 15.771h15.127c1.104 0 2 .896 2 2v6.128l7.104-4.767c.336-.226.725-.339 1.113-.339z" fill="#422618"/></g></g></svg>