<svg id="Layer_1" height="512" viewBox="0 0 256 256" width="512" xmlns="http://www.w3.org/2000/svg"><g><g><g><g><path d="m243 203.96h-230v-10.416c0-1.105.895-2 2-2h226c1.105 0 2 .895 2 2z" fill="#c68254"/></g><g><path d="m248 216.376h-240v-10.416c0-1.105.895-2 2-2h236c1.105 0 2 .895 2 2z" fill="#e59a5c"/></g><g><path d="m251 228.792h-246c-1.105 0-2-.895-2-2v-8.416c0-1.105.895-2 2-2h246c1.105 0 2 .895 2 2v8.416c0 1.105-.896 2-2 2z" fill="#c68254"/></g><g><path d="m191.054 191.544v-8.163c0-1.767 1.433-3.2 3.2-3.2h3.345v-75.584h-4.545c-1.105 0-2-.895-2-2v-9.363h-126.109v9.363c0 1.105-.895 2-2 2h-4.545v75.584h3.345c1.767 0 3.2 1.433 3.2 3.2v8.163z" fill="#725246"/></g><g><path d="m8 66.418h240v15h-240z" fill="#e59a5c"/></g><g><path d="m246 93.233h-236c-1.105 0-2-.895-2-2v-9.815h240v9.815c0 1.105-.896 2-2 2z" fill="#c68254"/></g><g><path d="m248 66.418h-240v-4.296c0-1.986 1.175-3.784 2.994-4.58l112.995-49.478c2.557-1.12 5.465-1.12 8.022 0l112.994 49.478c1.819.797 2.994 2.594 2.994 4.58v4.296z" fill="#c68254"/></g><g><path d="m206.805 56.952h-157.61c-2.162 0-2.786-2.955-.809-3.829l77.591-34.312c1.288-.57 2.756-.57 4.044 0l77.591 34.312c1.979.874 1.355 3.829-.807 3.829z" fill="#e59a5c"/></g><g><path d="m27.855 104.596h30.546v75.584h-30.546z" fill="#e59a5c"/></g><g><path d="m21.309 191.543v-8.163c0-1.767 1.433-3.2 3.2-3.2h37.236c1.767 0 3.2 1.433 3.2 3.2v8.163z" fill="#e59a5c"/></g><g><path d="m27.855 104.596h30.545v75.584h-30.545z" fill="#c68254"/></g><g><path d="m21.309 102.596v-9.363h43.636v9.363c0 1.105-.895 2-2 2h-39.636c-1.105 0-2-.895-2-2z" fill="#e59a5c"/></g><g><path d="m77.309 191.543v-8.163c0-1.767 1.433-3.2 3.2-3.2h37.236c1.767 0 3.2 1.433 3.2 3.2v8.163z" fill="#e59a5c"/></g><g><path d="m83.854 104.596h30.546v75.584h-30.546z" fill="#c68254"/></g><g><path d="m77.309 102.596v-9.363h43.636v9.363c0 1.105-.895 2-2 2h-39.636c-1.105 0-2-.895-2-2z" fill="#e59a5c"/></g><g><path d="m229.691 93.233v4.363c0 1.105-.896 2-2 2h-36.636v3c0 1.105.896 2 2 2h39.636c1.104 0 2-.895 2-2v-9.363z" fill="#e59076"/></g><g><path d="m197.6 104.596h30.546v75.584h-30.546z" fill="#c68254"/></g><g><path d="m191.054 102.596v-9.363h43.636v9.363c0 1.105-.895 2-2 2h-39.636c-1.104 0-2-.895-2-2z" fill="#e59a5c"/></g><g><path d="m191.054 191.543v-8.163c0-1.767 1.433-3.2 3.2-3.2h37.236c1.767 0 3.2 1.433 3.2 3.2v8.163z" fill="#e59a5c"/></g><g><path d="m141.6 104.596h30.546v75.584h-30.546z" fill="#c68254"/></g><g><path d="m135.054 102.596v-9.363h43.636v9.363c0 1.105-.895 2-2 2h-39.636c-1.104 0-2-.895-2-2z" fill="#e59a5c"/></g><g><path d="m135.054 191.543v-8.163c0-1.767 1.433-3.2 3.2-3.2h37.236c1.767 0 3.2 1.433 3.2 3.2v8.163z" fill="#e59a5c"/></g></g><g><g><g><path d="m123 248.776h-49.75c-2.761 0-5-2.239-5-5v-72.096c0-1.172.95-2.123 2.123-2.123h52.627c2.761 0 5 2.239 5 5v69.218c0 2.762-2.239 5.001-5 5.001z" fill="#8c77aa"/></g><g><path d="m182.75 248.776h-49.75c-2.761 0-5-2.239-5-5v-69.218c0-2.761 2.239-5 5-5h49.75c2.761 0 5 2.239 5 5v69.218c0 2.761-2.239 5-5 5z" fill="#8c77aa"/></g></g><g><g><path d="m123 243.427h-49.75c-2.761 0-5-2.239-5-5v-69.218c0-2.761 2.239-5 5-5h49.75c2.761 0 5 2.239 5 5v69.218c0 2.762-2.239 5-5 5z" fill="#a48bc1"/></g><g><path d="m182.75 243.427h-49.75c-2.761 0-5-2.239-5-5v-69.218c0-2.761 2.239-5 5-5h49.75c2.761 0 5 2.239 5 5v69.218c0 2.762-2.239 5-5 5z" fill="#ba9dd6"/></g></g><g><path d="m123 236.857h-44.794c-2.761 0-5-2.239-5-5v-67.712c0-2.761 2.239-5 5-5h44.794c2.761 0 5 2.239 5 5v67.712c0 2.761-2.239 5-5 5z" fill="#e8c197"/></g><g><path d="m177.039 236.857h-43.284c-3.178 0-5.755-2.576-5.755-5.755v-66.202c0-3.178 2.576-5.755 5.755-5.755h43.284c3.178 0 5.755 2.576 5.755 5.755v66.202c0 3.178-2.577 5.755-5.755 5.755z" fill="#e6e7e8"/></g><g><path d="m177.794 236.857h-44.794c-2.761 0-5-2.239-5-5v-67.712c0-2.761 2.239-5 5-5h44.794c2.761 0 5 2.239 5 5v67.712c0 2.761-2.239 5-5 5z" fill="#fedbb0"/></g><g><path d="m177.794 159.145h-20c2.761 0 5 2.239 5 5v67.712c0 2.761-2.239 5-5 5h20c2.761 0 5-2.239 5-5v-67.712c0-2.762-2.239-5-5-5z" fill="#e8c197"/></g><g><g><g><path d="m171.968 177.634h-32.242c-1.104 0-2-.896-2-2s.896-2 2-2h32.242c1.104 0 2 .896 2 2s-.896 2-2 2z" fill="#d1ab86"/></g><g><path d="m171.968 192.977h-32.242c-1.104 0-2-.896-2-2s.896-2 2-2h32.242c1.104 0 2 .896 2 2s-.896 2-2 2z" fill="#d1ab86"/></g><g><path d="m171.968 208.318h-32.242c-1.104 0-2-.896-2-2s.896-2 2-2h32.242c1.104 0 2 .896 2 2s-.896 2-2 2z" fill="#d1ab86"/></g><g><path d="m171.968 223.66h-32.242c-1.104 0-2-.896-2-2s.896-2 2-2h32.242c1.104 0 2 .896 2 2s-.896 2-2 2z" fill="#d1ab86"/></g></g><g><g><path d="m116.274 177.634h-32.242c-1.104 0-2-.896-2-2s.896-2 2-2h32.242c1.104 0 2 .896 2 2s-.895 2-2 2z" fill="#d1ab86"/></g><g><path d="m116.274 192.977h-32.242c-1.104 0-2-.896-2-2s.896-2 2-2h32.242c1.104 0 2 .896 2 2s-.895 2-2 2z" fill="#d1ab86"/></g><g><path d="m116.274 208.318h-32.242c-1.104 0-2-.896-2-2s.896-2 2-2h32.242c1.104 0 2 .896 2 2s-.895 2-2 2z" fill="#d1ab86"/></g><g><path d="m116.274 223.66h-32.242c-1.104 0-2-.896-2-2s.896-2 2-2h32.242c1.104 0 2 .896 2 2s-.895 2-2 2z" fill="#d1ab86"/></g></g></g></g></g><g><path d="m182.75 250.775h-49.75c-1.957 0-3.729-.807-5-2.105-1.271 1.298-3.043 2.105-5 2.105h-49.75c-3.859 0-7-3.14-7-7v-12.983h-61.25c-2.206 0-4-1.794-4-4v-8.416c0-2.206 1.794-4 4-4h1v-8.417c0-2.206 1.794-4 4-4h1v-8.416c0-2.206 1.794-4 4-4h4.309v-6.164c0-2.867 2.333-5.2 5.2-5.2h1.346v-71.584h-2.546c-2.206 0-4-1.794-4-4v-7.363h-9.309c-2.206 0-4-1.794-4-4v-29.11c0-2.78 1.646-5.297 4.191-6.412l112.997-49.478c3.057-1.34 6.565-1.34 9.626 0l112.994 49.478c2.547 1.115 4.192 3.632 4.192 6.412v29.111c0 2.206-1.794 4-4 4h-9.31v7.363c0 .541-.106 1.066-.316 1.56-.513 1.212-1.589 2.095-2.879 2.359-.26.054-.531.081-.805.081h-2.545v71.584h1.346c2.867 0 5.199 2.333 5.199 5.2v6.164h4.31c2.206 0 4 1.794 4 4v8.416h1c2.206 0 4 1.794 4 4v8.417h1c2.206 0 4 1.794 4 4v8.416c0 2.206-1.794 4-4 4h-61.25v12.983c0 3.859-3.141 6.999-7 6.999zm-54.75-9c1.104 0 2 .896 2 2 0 1.654 1.346 3 3 3h49.75c1.654 0 3-1.346 3-3v-14.983c0-1.104.896-2 2-2h63.25v-8.416h-3c-1.104 0-2-.896-2-2v-10.416h-3c-1.104 0-2-.896-2-2v-10.416h-6.31c-1.104 0-2-.896-2-2v-8.164c0-.662-.538-1.2-1.199-1.2h-3.346c-1.104 0-2-.896-2-2v-75.584c0-1.104.896-2 2-2h4.545v-9.363c0-1.104.896-2 2-2h11.31v-29.111c0-1.191-.705-2.27-1.797-2.748l-112.994-49.478c-2.039-.893-4.378-.893-6.417 0l-112.996 49.478c-1.091.478-1.796 1.557-1.796 2.748v29.111h11.309c1.104 0 2 .896 2 2v9.363h4.546c1.104 0 2 .896 2 2v75.584c0 1.104-.896 2-2 2h-3.346c-.662 0-1.2.538-1.2 1.2v8.164c0 1.104-.896 2-2 2h-6.309v10.416c0 1.104-.896 2-2 2h-3v10.417c0 1.104-.896 2-2 2h-3v8.416h63.25c1.104 0 2 .896 2 2v14.983c0 1.654 1.346 3 3 3h49.75c1.654 0 3-1.346 3-3 0-1.105.896-2.001 2-2.001z" fill="#422618"/></g></g></svg>