<svg id="Layer_1" height="512" viewBox="0 0 256 256" width="512" xmlns="http://www.w3.org/2000/svg"><g><g><g><g><g><path d="m220.667 225.21h-185c-2.761 0-5 2.239-5 5v12.863c0 2.761 2.239 5 5 5h185c2.761 0 5-2.239 5-5v-12.863c0-2.762-2.239-5-5-5z" fill="#f47da5"/></g><g><g><g><path d="m49.167 225.21h11v22.863h-11z" fill="#725246"/></g><g><path d="m69.167 225.21h11v22.863h-11z" fill="#725246"/></g></g><g><g><path d="m176.167 225.21h11v22.863h-11z" fill="#725246"/></g><g><path d="m196.167 225.21h11v22.863h-11z" fill="#725246"/></g></g></g></g><g><g><path d="m223.667 125.876h-162c-13.991 0-25.333 11.342-25.333 25.333 0 13.991 11.342 25.333 25.333 25.333h162c1.105 0 2-.895 2-2v-46.667c0-1.103-.896-1.999-2-1.999z" fill="#99bc82"/></g><g><path d="m225.667 135.876h-164c-8.468 0-15.333 6.865-15.333 15.333 0 8.468 6.865 15.333 15.333 15.333h164z" fill="#fedbb0"/></g><g><g><path d="m225.667 144.21v-4h-174.669c-1.194 1.158-2.195 2.508-2.963 4z" fill="#d1ab86"/></g><g><path d="m225.667 149.21h-179.189c-.086.656-.145 1.32-.145 2s.059 1.344.145 2h179.188v-4z" fill="#d1ab86"/></g><g><path d="m225.667 158.21h-177.632c.768 1.492 1.769 2.842 2.963 4h174.669z" fill="#d1ab86"/></g></g></g><g><g><g><path d="m32.333 176.543h173.333c11.046 0 20 8.954 20 20v8.667c0 11.046-8.954 20-20 20h-173.333c-1.105 0-2-.895-2-2v-44.667c0-1.105.896-2 2-2z" fill="#a86654"/></g><g><path d="m30.333 186.543h175.333c5.523 0 10 4.477 10 10v8.667c0 5.523-4.477 10-10 10h-175.333z" fill="#fedbb0"/></g></g><g><g><path d="m30.333 197.376h185.333v-.833c0-1.108-.188-2.17-.52-3.167h-184.813z" fill="#e8c197"/></g><g><path d="m30.333 204.376v4h184.813c.333-.996.52-2.059.52-3.167v-.833z" fill="#e8c197"/></g></g></g></g><g><g><path d="m110.782 29.674v-9.861c0-1.593 1.291-2.884 2.884-2.884h30.023c1.593 0 2.884 1.291 2.884 2.884v9.861h9.558v-13.095c0-4.778-3.874-8.652-8.652-8.652h-37.603c-4.778 0-8.652 3.874-8.652 8.652v13.095z" fill="#725246"/></g><g><g><path d="m146.573 25.431h9.558v4.243h-9.558z" fill="#fcc171"/></g><g><path d="m101.224 25.431h9.558v4.243h-9.558z" fill="#fcc171"/></g></g><g><path d="m191.653 59.392-20.512 22.052c-1.892 2.034-4.544 3.189-7.322 3.189h-70.387c-2.687 0-5.261-1.081-7.141-3l-21.764-22.204c-.103-.105-.194-.219-.291-.328v56.775c0 5.523 4.477 10 10 10h107.528c5.523 0 10-4.477 10-10v-56.615c-.038.043-.072.089-.111.131z" fill="#c77b61"/></g><g><path d="m191.653 59.392-19.889 21.382v35.102c0 5.523-4.477 10-10 10h20c5.523 0 10-4.477 10-10v-56.615c-.038.043-.072.089-.111.131z" fill="#a86654"/></g><g><path d="m61.669 52.429v-12.755c0-5.523 4.477-10 10-10h112.662c5.523 0 10 4.477 10 10v12.907c0 2.527-.957 4.96-2.678 6.811l-20.512 22.051c-1.892 2.034-4.544 3.189-7.322 3.189h-70.387c-2.687 0-5.261-1.081-7.141-3l-21.764-22.203c-1.832-1.869-2.858-4.382-2.858-7z" fill="#e59a5c"/></g><g><path d="m139.537 89.083h-21.72c-1.105 0-2-.895-2-2v-6.054c0-1.105.895-2 2-2h21.72c1.105 0 2 .895 2 2v6.054c0 1.105-.895 2-2 2z" fill="#fedbb0"/></g></g></g><g><path d="m220.667 250.073h-185c-3.86 0-7-3.14-7-7v-12.863c0-1.432.432-2.765 1.173-3.875-.917-.733-1.506-1.862-1.506-3.125v-44.667c0-2.206 1.794-4 4-4h15.109c-7.856-4.807-13.109-13.468-13.109-23.333 0-15.072 12.262-27.333 27.333-27.333h3.632c-1.904-2.125-3.063-4.93-3.063-8v-56.048c-1.661-2.113-2.567-4.711-2.567-7.399v-12.756c0-6.617 5.383-12 12-12h27.555v-11.095c0-5.874 4.778-10.652 10.652-10.652h37.603c5.874 0 10.652 4.778 10.652 10.652v11.095h26.2c6.617 0 12 5.383 12 12v12.907c0 2.695-.906 5.296-2.567 7.408v55.888c0 3.07-1.159 5.875-3.063 8h32.967c2.206 0 4 1.794 4 4v46.667c0 2.206-1.794 4-4 4h-5.364c5.66 3.985 9.364 10.568 9.364 18v8.667c0 7.432-3.704 14.015-9.363 18h2.363c3.859 0 7 3.14 7 7v12.863c-.001 3.859-3.142 6.999-7.001 6.999zm-185-22.864c-1.654 0-3 1.346-3 3v12.863c0 1.654 1.346 3 3 3h185c1.654 0 3-1.346 3-3v-12.863c0-1.654-1.346-3-3-3h-15c-1.105 0-2-.896-2-2s.895-2 2-2c9.925 0 18-8.075 18-18v-8.667c0-9.925-8.075-18-18-18-1.105 0-2-.896-2-2s.895-2 2-2h18v-46.667h-41.903c-1.104 0-2-.896-2-2s.896-2 2-2c4.411 0 8-3.589 8-8v-56.614c0-.494.183-.97.513-1.337 1.325-1.474 2.055-3.372 2.055-5.343v-12.907c0-4.411-3.589-8-8-8h-28.2c-1.104 0-2-.896-2-2v-13.095c0-3.668-2.984-6.652-6.652-6.652h-37.603c-3.668 0-6.652 2.984-6.652 6.652v13.095c0 1.104-.896 2-2 2h-29.556c-4.411 0-8 3.589-8 8v12.755c0 1.964.73 3.859 2.056 5.336.329.367.511.843.511 1.336v56.775c0 4.411 3.589 8 8 8 1.104 0 2 .896 2 2s-.896 2-2 2h-12.569c-12.866 0-23.333 10.467-23.333 23.333s10.467 23.333 23.333 23.333c1.104 0 2 .896 2 2s-.896 2-2 2h-29.334v44.667h3.333c1.104 0 2 .896 2 2s-.895 2-1.999 2zm110.905-195.535h-35.791c-1.104 0-2-.896-2-2v-9.861c0-2.693 2.191-4.884 4.884-4.884h30.023c2.693 0 4.884 2.191 4.884 4.884v9.861c0 1.105-.895 2-2 2zm-33.79-4h31.791v-7.861c0-.487-.396-.884-.884-.884h-30.023c-.487 0-.884.396-.884.884z" fill="#422618"/></g></g></svg>