<svg id="Layer_1" height="512" viewBox="0 0 256 256" width="512" xmlns="http://www.w3.org/2000/svg"><g><g><g><g><g><path d="m229.554 134.561c-.09-.09-.181-.181-.271-.271-4.995-4.995-13.09-4.998-18.084-.002-10.622 10.626-27.725 27.729-35.009 35.014-2.228 2.228-5.236 3.466-8.387 3.466h-24.834c8.201-.043 14.838-6.701 14.838-14.912 0-8.238-6.678-14.916-14.916-14.916h-32.256c-8.029 0-15.715 3.25-21.309 9.01l-20.218 20.819h-7.613v49.668h82.959c9.454 0 18.52-3.755 25.206-10.439l59.893-59.883c4.847-4.848 4.848-12.706.001-17.554z" fill="#e59a5c"/></g><g><path d="m230.258 135.34c.209 3.425-.983 6.919-3.6 9.537l-59.893 59.883c-6.685 6.684-15.752 10.439-25.206 10.439h-80.065v7.236h82.959c9.454 0 18.52-3.755 25.206-10.439l59.893-59.883c4.598-4.596 4.828-11.896.706-16.773z" fill="#c68254"/></g><g><path d="m142.89 172.772h-24.422c-1.199 0-2.171-.972-2.171-2.171 0-1.199.972-2.171 2.171-2.171h21.528c8.238 0 14.916-6.678 14.916-14.916 0-2.116-.447-4.125-1.241-5.949 2.556 2.677 4.135 6.296 4.135 10.291 0 8.238-6.678 14.916-14.916 14.916z" fill="#c68254"/></g><g><path d="m137.853 167.268h3.025c4.418 0 8-3.582 8-8v-2.825c0-4.418-3.582-8-8-8h-3.025c-1.105 0-2 .895-2 2v14.825c0 1.105.896 2 2 2z" fill="#fcc171"/></g><g><path d="m56.494 237.288h-28.683c-2.761 0-5-2.239-5-5v-69.372c0-2.761 2.239-5 5-5h28.683c2.761 0 5 2.239 5 5v69.372c0 2.761-2.238 5-5 5z" fill="#ba9dd6"/></g><g><path d="m56.494 237.288h-20c2.761 0 5-2.239 5-5v-69.372c0-2.761-2.239-5-5-5h20c2.761 0 5 2.239 5 5v69.372c0 2.761-2.238 5-5 5z" fill="#a48bc1"/></g></g></g><g><g><path d="m56.494 239.288h-28.682c-3.86 0-7-3.14-7-7v-69.372c0-3.86 3.14-7 7-7h28.683c3.86 0 7 3.14 7 7v7.852h4.767l19.629-20.212c5.935-6.111 14.225-9.616 22.744-9.616h32.256c9.328 0 16.917 7.588 16.917 16.916 0 5.164-2.339 9.804-6.014 12.912h14.01c2.639 0 5.116-1.023 6.973-2.88l35.009-35.015c2.792-2.793 6.504-4.332 10.453-4.332h.003c3.949.001 7.663 1.54 10.456 4.334l.271.271c2.722 2.722 4.221 6.341 4.221 10.19s-1.5 7.468-4.223 10.19l-59.893 59.883c-7.111 7.109-16.565 11.024-26.62 11.024h-80.96v7.852c0 3.862-3.14 7.003-7 7.003zm-28.682-79.372c-1.654 0-3 1.346-3 3v69.372c0 1.654 1.346 3 3 3h28.683c1.654 0 3-1.346 3-3v-9.852c0-1.104.896-2 2-2h82.959c8.987 0 17.437-3.5 23.792-9.854l59.893-59.883c1.967-1.966 3.05-4.581 3.051-7.361 0-2.781-1.083-5.395-3.049-7.362l-.271-.271c-2.039-2.039-4.748-3.161-7.629-3.162 0 0-.001 0-.002 0-2.88 0-5.587 1.122-7.624 3.16l-35.01 35.015c-2.613 2.613-6.093 4.052-9.801 4.052h-24.834c-1.103 0-1.997-.892-2-1.995s.887-2 1.99-2.005c7.084-.037 12.848-5.83 12.848-12.912 0-7.122-5.794-12.916-12.917-12.916h-32.256c-7.444 0-14.688 3.063-19.875 8.403l-20.218 20.819c-.376.388-.894.606-1.435.606h-7.613c-1.104 0-2-.896-2-2v-9.852c0-1.654-1.346-3-3-3h-28.682z" fill="#422618"/></g></g></g><g><path d="m130.894 20.815 9.889 30.437h32.003c2.948 0 4.174 3.773 1.789 5.505l-25.891 18.811 9.889 30.437c.911 2.804-2.298 5.135-4.683 3.403l-25.89-18.812-25.891 18.811c-2.385 1.733-5.594-.599-4.683-3.403l9.889-30.437-25.891-18.81c-2.385-1.733-1.159-5.505 1.789-5.505h32.003l9.889-30.437c.912-2.804 4.878-2.804 5.789 0z" fill="#fcc171"/></g><g><g><path d="m206.216 54.421 6.994 21.526h22.633c2.085 0 2.952 2.668 1.265 3.894l-18.311 13.304 6.994 21.526c.644 1.983-1.625 3.632-3.312 2.406l-18.311-13.304-18.311 13.304c-1.687 1.226-3.956-.423-3.312-2.406l6.994-21.526-18.31-13.305c-1.687-1.226-.82-3.894 1.265-3.894h22.633l6.994-21.526c.645-1.982 3.451-1.982 4.095.001z" fill="#fcc171"/></g><g><path d="m53.878 54.421 6.994 21.526h22.633c2.085 0 2.952 2.668 1.265 3.894l-18.31 13.303 6.994 21.526c.644 1.983-1.625 3.632-3.312 2.406l-18.311-13.304-18.311 13.304c-1.687 1.226-3.956-.423-3.312-2.406l6.994-21.526-18.311-13.304c-1.687-1.226-.82-3.894 1.265-3.894h22.634l6.994-21.526c.644-1.982 3.45-1.982 4.094.001z" fill="#fcc171"/></g></g><g><path d="m100.32 112.006c-1.032 0-2.064-.327-2.964-.981-1.801-1.309-2.52-3.521-1.832-5.639l9.44-29.054-24.715-17.957c-1.801-1.309-2.52-3.521-1.832-5.639.688-2.117 2.571-3.485 4.797-3.485h30.55l9.44-29.055c.688-2.117 2.571-3.485 4.797-3.485s4.109 1.368 4.797 3.485l9.44 29.055h30.55c2.226 0 4.109 1.368 4.797 3.485s-.031 4.33-1.833 5.639l-24.715 17.957 9.441 29.054c.688 2.117-.031 4.33-1.833 5.639-1.8 1.307-4.127 1.309-5.929 0l-24.716-17.956-24.715 17.957c-.901.654-1.933.98-2.965.98zm-17.107-58.754c-.685 0-.922.504-.993.721-.07.217-.174.764.379 1.166l25.892 18.811c.701.509.994 1.412.727 2.236l-9.89 30.437c-.211.65.194 1.032.379 1.166.184.134.674.402 1.226 0l25.891-18.811c.701-.509 1.65-.509 2.352 0l25.891 18.811c.552.402 1.042.134 1.226 0s.59-.516.379-1.166l-9.89-30.437c-.268-.824.026-1.727.727-2.236l25.891-18.811c.554-.402.45-.949.379-1.166s-.308-.721-.993-.721h-32.003c-.867 0-1.634-.558-1.902-1.382l-9.889-30.437c-.211-.651-.764-.721-.992-.721s-.781.07-.992.721l-9.889 30.437c-.268.824-1.036 1.382-1.902 1.382z" fill="#422618"/></g><g><g><path d="m184.593 119.501c-.85 0-1.699-.269-2.44-.808-1.483-1.077-2.075-2.899-1.509-4.642l6.545-20.144-17.136-12.45c-1.482-1.078-2.074-2.9-1.508-4.643s2.116-2.869 3.949-2.869h21.181l6.545-20.144c.566-1.743 2.116-2.869 3.949-2.869s3.383 1.126 3.949 2.869l6.545 20.144h21.181c1.833 0 3.382 1.126 3.949 2.869.566 1.743-.025 3.565-1.508 4.643l-17.136 12.45 6.545 20.144c.566 1.743-.026 3.565-1.509 4.643s-3.399 1.077-4.881 0l-17.135-12.45-17.135 12.45c-.742.538-1.592.807-2.441.807zm-12.099-41.555c-.062 0-.11 0-.145.105s.005.134.055.171l18.311 13.303c.701.509.994 1.412.727 2.236l-6.994 21.526c-.019.059-.034.105.055.17.087.065.128.037.179 0l18.311-13.304c.701-.509 1.65-.509 2.352 0l18.311 13.304c.049.036.088.066.179 0 .089-.065.074-.111.055-.17l-6.994-21.525c-.268-.824.026-1.727.727-2.236l18.311-13.304c.05-.036.09-.065.055-.17-.034-.105-.083-.105-.145-.105h-22.634c-.867 0-1.634-.558-1.902-1.382l-6.994-21.526c-.019-.059-.034-.105-.145-.105s-.125.046-.145.105l-6.994 21.526c-.268.824-1.036 1.382-1.902 1.382h-22.634z" fill="#422618"/></g><g><path d="m32.255 119.501c-.85 0-1.699-.269-2.44-.808-1.483-1.077-2.075-2.899-1.509-4.642l6.545-20.144-17.136-12.45c-1.482-1.078-2.074-2.9-1.508-4.643s2.116-2.869 3.949-2.869h21.181l6.545-20.144c.566-1.743 2.116-2.869 3.949-2.869s3.383 1.126 3.949 2.869l6.545 20.144h21.181c1.833 0 3.382 1.126 3.949 2.869.566 1.743-.025 3.565-1.508 4.643l-17.136 12.45 6.545 20.144c.566 1.743-.026 3.565-1.509 4.643s-3.399 1.077-4.881 0l-17.135-12.45-17.135 12.45c-.741.538-1.592.807-2.441.807zm-12.099-41.555c-.062 0-.11 0-.145.105s.005.134.055.171l18.311 13.303c.701.509.994 1.412.727 2.236l-6.994 21.526c-.019.059-.034.105.055.17.088.065.128.037.179 0l18.311-13.304c.701-.509 1.65-.509 2.352 0l18.311 13.304c.049.036.088.066.179 0 .089-.065.074-.111.055-.17l-6.994-21.525c-.268-.824.026-1.727.727-2.236l18.311-13.304c.05-.036.09-.065.055-.17-.034-.105-.083-.105-.145-.105h-22.634c-.867 0-1.634-.558-1.902-1.382l-6.994-21.526c-.019-.059-.034-.105-.145-.105s-.125.046-.145.105l-6.994 21.526c-.268.824-1.036 1.382-1.902 1.382h-22.634z" fill="#422618"/></g></g></g></svg>