<svg id="Layer_1" height="512" viewBox="0 0 256 256" width="512" xmlns="http://www.w3.org/2000/svg"><g><g><g><path d="m239.844 166.037h-213.552c-5.523 0-10-4.477-10-10v-137.116c0-5.523 4.477-10 10-10h213.552c5.523 0 10 4.477 10 10v137.116c0 5.523-4.477 10-10 10z" fill="#725246"/></g><g><path d="m234.844 156.037h-203.552c-2.761 0-5-2.239-5-5v-127.116c0-2.761 2.239-5 5-5h203.552c2.761 0 5 2.239 5 5v127.116c0 2.761-2.239 5-5 5z" fill="#bbe2a1"/></g><g><path d="m234.844 18.921h-20c2.761 0 5 2.239 5 5v127.116c0 2.761-2.239 5-5 5h20c2.761 0 5-2.239 5-5v-127.116c0-2.761-2.239-5-5-5z" fill="#a9ce91"/></g><g fill="#422618"><path d="m202.41 77.823c0-4.431-3.604-8.035-8.035-8.035h-10.863c-1.104 0-2 .896-2 2v12.07 19.313c0 1.104.896 2 2 2h10.863c4.431 0 8.035-3.604 8.035-8.035v-7.242c0-2.405-1.068-4.561-2.748-6.035 1.681-1.475 2.748-3.631 2.748-6.036zm-4 12.07v7.242c0 2.225-1.811 4.035-4.035 4.035h-8.863v-15.312h8.863c2.225 0 4.035 1.81 4.035 4.035zm-12.898-8.035v-8.07h8.863c2.225 0 4.035 1.81 4.035 4.035s-1.811 4.035-4.035 4.035z"/><path d="m226.52 95.135c-1.104 0-2 .896-2 2 0 2.225-1.811 4.035-4.035 4.035h-4.828c-2.225 0-4.035-1.81-4.035-4.035v-19.312c0-2.225 1.811-4.035 4.035-4.035h4.828c2.225 0 4.035 1.81 4.035 4.035 0 1.104.896 2 2 2s2-.896 2-2c0-4.431-3.604-8.035-8.035-8.035h-4.828c-4.431 0-8.035 3.604-8.035 8.035v19.313c0 4.431 3.604 8.035 8.035 8.035h4.828c4.431 0 8.035-3.604 8.035-8.035 0-1.105-.896-2.001-2-2.001z"/><path d="m167.782 71.268c-.235-.873-1.027-1.48-1.932-1.48s-1.696.607-1.932 1.48l-8.449 31.383c-.287 1.067.345 2.164 1.412 2.451 1.067.289 2.164-.345 2.451-1.411l2.851-10.59h7.333l2.851 10.59c.24.893 1.048 1.48 1.931 1.48.172 0 .347-.022.521-.069 1.067-.287 1.699-1.384 1.412-2.451zm-4.521 17.832 2.59-9.62 2.59 9.62z"/></g><g><g><path d="m111.068 95.085c-8.822 0-16-7.178-16-16s7.178-16 16-16 16 7.178 16 16-7.177 16-16 16zm0-28c-6.617 0-12 5.383-12 12s5.383 12 12 12 12-5.383 12-12-5.382-12-12-12z" fill="#725246"/></g><g><path d="m85.072 81.085c-.844 0-1.627-.537-1.902-1.382-.341-1.05.233-2.179 1.284-2.52 4.326-1.407 8.901-1.408 13.228 0 1.051.341 1.625 1.47 1.284 2.52-.342 1.05-1.467 1.628-2.521 1.284-3.519-1.143-7.236-1.143-10.755 0-.205.066-.414.098-.618.098z" fill="#725246"/></g><g><path d="m125.328 76.76 11.74-5.737v-4.451l-13.495 6.594z" fill="#725246"/></g><g><path d="m45.068 71.048 11.691 5.712 1.755-3.594-13.446-6.57z" fill="#725246"/></g><g><path d="m71.068 95.085c-8.822 0-16-7.178-16-16s7.178-16 16-16 16 7.178 16 16-7.177 16-16 16zm0-28c-6.617 0-12 5.383-12 12s5.383 12 12 12 12-5.383 12-12-5.382-12-12-12z" fill="#725246"/></g></g><g><g><g><path d="m106.538 130.313h-30.939c-22.091 0-40-17.909-40-40v-38.452c0-22.091 17.909-40 40-40h30.939c22.091 0 40 17.909 40 40v38.452c0 22.092-17.909 40-40 40z" fill="#c77b61"/></g><g><g><g><path d="m137.068 72.418v17.592c0 3.325-.361 6.564-1.031 9.689.342.026.683.052 1.031.052 7.548 0 13.667-6.119 13.667-13.667s-6.119-13.666-13.667-13.666z" fill="#fedbb0"/></g><g><path d="m137.068 79.085v10.925c0 1.032-.046 2.053-.113 3.069.038 0 .075.006.113.006 3.866 0 7-3.134 7-7s-3.134-7-7-7z" fill="#e8c197"/></g></g><g><g><path d="m45.068 90.01v-17.592c-7.548 0-13.667 6.119-13.667 13.667s6.119 13.667 13.667 13.667c.348 0 .69-.026 1.031-.052-.67-3.125-1.031-6.365-1.031-9.69z" fill="#fedbb0"/></g><g><path d="m45.068 90.01v-10.925c-3.866 0-7 3.134-7 7s3.134 7 7 7c.038 0 .075-.005.113-.006-.067-1.015-.113-2.036-.113-3.069z" fill="#e8c197"/></g></g></g><g><path d="m165.98 247.079h-149.824c-5.523 0-10-4.477-10-10v-35.994c0-27.614 22.386-50 50-50h69.824c27.614 0 50 22.386 50 50v35.994c0 5.523-4.477 10-10 10z" fill="#8dc8d8"/></g><g><path d="m135.421 186.987 7.241-6.619c1.887-1.725 2.169-4.595.653-6.654l-17.338-23.557c-1.885-2.561-4.874-4.072-8.054-4.072h-53.711c-3.179 0-6.169 1.512-8.054 4.072l-17.338 23.557c-1.515 2.059-1.234 4.929.653 6.654l7.241 6.619-8.939 12.777c-1.005 1.437-1.184 3.295-.472 4.897l18.852 42.418h69.824l18.852-42.418c.712-1.602.533-3.46-.472-4.897z" fill="#6ea6af"/></g><g><path d="m107.235 247.079h-32.334l-9.425-90.476c-.307-2.95 2.007-5.518 4.973-5.518h41.238c2.966 0 5.28 2.568 4.973 5.518z" fill="#725246"/></g><g><path d="m91.068 136.01c-5.69 0-11.136-1.04-16.167-2.929v23.59c0 .915.314 1.803.889 2.515l12.167 15.051c1.601 1.981 4.621 1.981 6.222 0l12.167-15.051c.575-.712.889-1.6.889-2.515v-23.59c-5.031 1.889-10.476 2.929-16.167 2.929z" fill="#e8c197"/></g><g><g><path d="m107.068 33.861h-32c-16.569 0-30 13.431-30 30v26.149c0 25.405 20.595 46 46 46 25.405 0 46-20.595 46-46v-26.149c0-16.568-13.431-30-30-30z" fill="#fedbb0"/></g></g><g><circle cx="111.068" cy="79.377" fill="#725246" r="5.292"/></g><g><circle cx="71.068" cy="79.377" fill="#725246" r="5.292"/></g><g><path d="m91.068 118.45c5.489 0 10.066-4.031 11.11-9.383.236-1.211-.74-2.325-1.975-2.325h-18.27c-1.234 0-2.211 1.114-1.975 2.325 1.044 5.352 5.621 9.383 11.11 9.383z" fill="#d1ab86"/></g><g><g><path d="m91.625 106.325c-.447-1.193 1.752-6.261 6.41-6.559 5.944-.38 11.105 7.187 15.541 10.1 2.307 1.515 5.733-.339 5.478-.186-.239.144-1.568 5.429-6.149 5.429-7.239 0-10.505-5.246-14.913-7.097-4.492-1.888-5.92-.495-6.367-1.687z" fill="#c77b61"/></g><g><path d="m90.511 106.325c.447-1.193-1.752-6.261-6.41-6.559-5.944-.38-11.105 7.187-15.541 10.1-2.307 1.515-5.733-.339-5.478-.186.239.144 1.568 5.429 6.149 5.429 7.239 0 10.505-5.246 14.913-7.097 4.492-1.888 5.92-.495 6.367-1.687z" fill="#c77b61"/></g></g></g></g><path d="m137.068 66.572-11.568 5.652c-2.575-5.394-8.068-9.139-14.432-9.139-7.964 0-14.569 5.855-15.782 13.483-2.792-.566-5.644-.566-8.436 0-1.213-7.628-7.818-13.483-15.782-13.483-6.372 0-11.87 3.754-14.442 9.158l-11.559-5.647v4.452l10.293 5.029c-.187.975-.293 1.979-.293 3.008 0 8.822 7.178 16 16 16 8.304 0 15.147-6.361 15.922-14.466 2.69-.652 5.465-.652 8.155 0 .775 8.105 7.618 14.466 15.922 14.466 8.822 0 16-7.178 16-16 0-1.037-.107-2.048-.297-3.031l10.296-5.031v-4.451zm-66 24.513c-6.617 0-12-5.383-12-12s5.383-12 12-12 12 5.383 12 12-5.382 12-12 12zm40 0c-6.617 0-12-5.383-12-12s5.383-12 12-12 12 5.383 12 12-5.382 12-12 12z" fill="#725246"/></g><g><path d="m165.98 249.079h-149.824c-6.617 0-12-5.383-12-12v-35.994c0-13.524 5.091-26.175 14.387-35.889-2.669-2.251-4.251-5.576-4.251-9.159v-137.116c0-6.617 5.383-12 12-12h213.552c6.617 0 12 5.383 12 12v137.116c0 6.617-5.383 12-12 12h-73.721c7.677 9.294 11.857 20.867 11.857 33.048v35.994c0 6.616-5.382 12-12 12zm-139.688-238.158c-4.411 0-8 3.589-8 8v137.116c0 2.985 1.649 5.702 4.306 7.09.571.299.964.855 1.054 1.494s-.134 1.281-.601 1.727c-9.604 9.156-14.895 21.493-14.895 34.737v35.994c0 4.411 3.589 8 8 8h149.824c4.411 0 8-3.589 8-8v-35.994c0-12.661-4.893-24.61-13.777-33.646-.565-.575-.73-1.432-.419-2.175.312-.744 1.039-1.227 1.845-1.227h78.215c4.411 0 8-3.589 8-8v-137.116c0-4.411-3.589-8-8-8z" fill="#422618"/></g></g></svg>