<svg id="Layer_1" height="512" viewBox="0 0 256 256" width="512" xmlns="http://www.w3.org/2000/svg"><g><g><g><path d="m238 232.717h-220c-2.761 0-5-2.239-5-5v-175.186c0-2.761 2.239-5 5-5h220c2.761 0 5 2.239 5 5v175.186c0 2.762-2.239 5-5 5z" fill="#e8c197"/></g><g><path d="m238 47.531h-20c2.761 0 5 2.239 5 5v175.186c0 2.761-2.239 5-5 5h20c2.761 0 5-2.239 5-5v-175.186c0-2.761-2.239-5-5-5z" fill="#d1ab86"/></g><g><path d="m87.444 32.031h81.112v200.686h-81.112z" fill="#fedbb0"/></g><g><path d="m170.682 23.283h-85.364c-2.416 0-4.374 1.958-4.374 4.374 0 2.416 1.958 4.374 4.374 4.374h85.364c2.416 0 4.374-1.958 4.374-4.374 0-2.416-1.958-4.374-4.374-4.374z" fill="#e8c197"/></g><g><g><path d="m39.667 87.198h-13.334c-1.105 0-2-.895-2-2v-17.334c0-1.105.895-2 2-2h13.333c1.105 0 2 .895 2 2v17.333c.001 1.105-.895 2.001-1.999 2.001z" fill="#725246"/></g><g><path d="m74.667 87.198h-13.334c-1.105 0-2-.895-2-2v-17.334c0-1.105.895-2 2-2h13.333c1.105 0 2 .895 2 2v17.333c.001 1.105-.895 2.001-1.999 2.001z" fill="#725246"/></g></g><g><g><path d="m194.667 87.198h-13.333c-1.105 0-2-.895-2-2v-17.334c0-1.105.895-2 2-2h13.333c1.105 0 2 .895 2 2v17.333c0 1.105-.896 2.001-2 2.001z" fill="#725246"/></g><g><path d="m229.667 87.198h-13.333c-1.105 0-2-.895-2-2v-17.334c0-1.105.895-2 2-2h13.333c1.105 0 2 .895 2 2v17.333c0 1.105-.896 2.001-2 2.001z" fill="#725246"/></g></g><g><g><path d="m39.667 122.198h-13.334c-1.105 0-2-.895-2-2v-17.333c0-1.105.895-2 2-2h13.333c1.105 0 2 .895 2 2v17.333c.001 1.104-.895 2-1.999 2z" fill="#725246"/></g><g><path d="m74.667 122.198h-13.334c-1.105 0-2-.895-2-2v-17.333c0-1.105.895-2 2-2h13.333c1.105 0 2 .895 2 2v17.333c.001 1.104-.895 2-1.999 2z" fill="#725246"/></g></g><g><g><path d="m194.667 122.198h-13.333c-1.105 0-2-.895-2-2v-17.333c0-1.105.895-2 2-2h13.333c1.105 0 2 .895 2 2v17.333c0 1.104-.896 2-2 2z" fill="#725246"/></g><g><path d="m229.667 122.198h-13.333c-1.105 0-2-.895-2-2v-17.333c0-1.105.895-2 2-2h13.333c1.105 0 2 .895 2 2v17.333c0 1.104-.896 2-2 2z" fill="#725246"/></g></g><g><g><path d="m39.667 157.198h-13.334c-1.105 0-2-.895-2-2v-17.333c0-1.105.895-2 2-2h13.333c1.105 0 2 .895 2 2v17.333c.001 1.104-.895 2-1.999 2z" fill="#725246"/></g><g><path d="m74.667 157.198h-13.334c-1.105 0-2-.895-2-2v-17.333c0-1.105.895-2 2-2h13.333c1.105 0 2 .895 2 2v17.333c.001 1.104-.895 2-1.999 2z" fill="#725246"/></g></g><g><g><path d="m39.667 192.198h-13.334c-1.105 0-2-.895-2-2v-17.333c0-1.105.895-2 2-2h13.333c1.105 0 2 .895 2 2v17.333c.001 1.104-.895 2-1.999 2z" fill="#725246"/></g><g><path d="m74.667 192.198h-13.334c-1.105 0-2-.895-2-2v-17.333c0-1.105.895-2 2-2h13.333c1.105 0 2 .895 2 2v17.333c.001 1.104-.895 2-1.999 2z" fill="#725246"/></g></g><g><g><path d="m194.667 157.198h-13.333c-1.105 0-2-.895-2-2v-17.333c0-1.105.895-2 2-2h13.333c1.105 0 2 .895 2 2v17.333c0 1.104-.896 2-2 2z" fill="#725246"/></g><g><path d="m229.667 157.198h-13.333c-1.105 0-2-.895-2-2v-17.333c0-1.105.895-2 2-2h13.333c1.105 0 2 .895 2 2v17.333c0 1.104-.896 2-2 2z" fill="#725246"/></g></g><g><g><path d="m194.667 192.198h-13.333c-1.105 0-2-.895-2-2v-17.333c0-1.105.895-2 2-2h13.333c1.105 0 2 .895 2 2v17.333c0 1.104-.896 2-2 2z" fill="#725246"/></g><g><path d="m229.667 192.198h-13.333c-1.105 0-2-.895-2-2v-17.333c0-1.105.895-2 2-2h13.333c1.105 0 2 .895 2 2v17.333c0 1.104-.896 2-2 2z" fill="#725246"/></g></g><g><g><path d="m118.167 69.864h-13.333c-1.105 0-2-.895-2-2v-17.333c0-1.105.895-2 2-2h13.333c1.105 0 2 .895 2 2v17.333c0 1.105-.896 2-2 2z" fill="#725246"/></g><g><path d="m151.167 69.864h-13.333c-1.105 0-2-.895-2-2v-17.333c0-1.105.895-2 2-2h13.333c1.105 0 2 .895 2 2v17.333c0 1.105-.896 2-2 2z" fill="#725246"/></g></g><g><g><path d="m118.167 104.864h-13.333c-1.105 0-2-.895-2-2v-17.333c0-1.105.895-2 2-2h13.333c1.105 0 2 .895 2 2v17.333c0 1.105-.896 2-2 2z" fill="#725246"/></g><g><path d="m151.167 104.864h-13.333c-1.105 0-2-.895-2-2v-17.333c0-1.105.895-2 2-2h13.333c1.105 0 2 .895 2 2v17.333c0 1.105-.896 2-2 2z" fill="#725246"/></g></g><g><g><path d="m181.4 232.717h-106.8v-3.765c0-1.105.895-2 2-2h102.8c1.105 0 2 .895 2 2z" fill="#c68254"/></g><g><path d="m72.278 148.85h111.444v6.965h-111.444z" fill="#e59a5c"/></g><g><path d="m181.722 161.301h-107.444c-1.105 0-2-.895-2-2v-3.486h111.444v3.486c0 1.105-.896 2-2 2z" fill="#c68254"/></g><g><path d="m183.722 148.85h-111.444v-2.205c0-.794.47-1.513 1.198-1.832l52.519-22.997c1.278-.56 2.733-.56 4.011 0l52.519 22.997c.728.319 1.198 1.038 1.198 1.832v2.205z" fill="#c68254"/></g><g><path d="m164.255 144.454h-72.51c-1.081 0-1.393-1.477-.404-1.915l34.638-15.317c1.288-.57 2.756-.57 4.044 0l34.638 15.317c.988.438.675 1.915-.406 1.915z" fill="#e59a5c"/></g><g><path d="m81.498 166.578h14.184v55.097h-14.184z" fill="#e59a5c"/></g><g><path d="m78.458 226.951v-3.277c0-1.105.895-2 2-2h16.263c1.105 0 2 .895 2 2v3.277z" fill="#e59a5c"/></g><g><path d="m81.498 166.578h14.184v55.097h-14.184z" fill="#c68254"/></g><g><path d="m78.458 164.578v-3.277h20.263v3.277c0 1.105-.895 2-2 2h-16.263c-1.104 0-2-.896-2-2z" fill="#e59a5c"/></g><g><path d="m104.462 226.951v-3.277c0-1.105.895-2 2-2h16.263c1.105 0 2 .895 2 2v3.277z" fill="#e59a5c"/></g><g><path d="m107.501 166.578h14.184v55.097h-14.184z" fill="#c68254"/></g><g><path d="m104.462 164.578v-3.277h20.263v3.277c0 1.105-.895 2-2 2h-16.263c-1.105 0-2-.896-2-2z" fill="#e59a5c"/></g><g><path d="m160.319 166.578h14.184v55.097h-14.184z" fill="#c68254"/></g><g><path d="m157.279 164.578v-3.277h20.263v3.277c0 1.105-.895 2-2 2h-16.263c-1.104 0-2-.896-2-2z" fill="#e59a5c"/></g><g><path d="m157.279 226.951v-3.277c0-1.105.895-2 2-2h16.263c1.105 0 2 .895 2 2v3.277z" fill="#e59a5c"/></g><g><path d="m134.315 166.578h14.184v55.097h-14.184z" fill="#c68254"/></g><g><path d="m131.276 164.578v-3.277h20.263v3.277c0 1.105-.895 2-2 2h-16.263c-1.105 0-2-.896-2-2z" fill="#e59a5c"/></g><g><path d="m131.276 226.951v-3.277c0-1.105.895-2 2-2h16.263c1.105 0 2 .895 2 2v3.277z" fill="#e59a5c"/></g></g></g><g><path d="m238 234.717h-220c-3.859 0-7-3.14-7-7v-175.186c0-3.86 3.141-7 7-7h67.443v-11.5h-.125c-3.516 0-6.375-2.859-6.375-6.374s2.859-6.375 6.375-6.375h85.363c3.516 0 6.375 2.859 6.375 6.375 0 3.515-2.859 6.374-6.375 6.374h-.125v11.5h67.444c3.859 0 7 3.14 7 7v175.186c0 3.86-3.141 7-7 7zm-220-185.186c-1.654 0-3 1.346-3 3v175.186c0 1.654 1.346 3 3 3h220c1.654 0 3-1.346 3-3v-175.186c0-1.654-1.346-3-3-3h-69.443c-1.104 0-2-.896-2-2v-15.5c0-1.104.896-2 2-2h2.125c1.31 0 2.375-1.065 2.375-2.374 0-1.31-1.065-2.375-2.375-2.375h-85.364c-1.31 0-2.375 1.065-2.375 2.375 0 1.309 1.065 2.374 2.375 2.374h2.125c1.104 0 2 .896 2 2v15.5c0 1.104-.896 2-2 2z" fill="#422618"/></g></g></svg>